<svg xmlns="http://www.w3.org/2000/svg" xmlns:xlink="http://www.w3.org/1999/xlink" width="800" zoomAndPan="magnify" viewBox="0 0 600 599.999999" height="800" preserveAspectRatio="xMidYMid meet" version="1.0"><defs><g/></defs><g fill="#80011f" fill-opacity="1"><g transform="translate(124.313959, 342.635499)"><g><path d="M 73.296875 0.140625 L 58.171875 -35.3125 L 23.828125 -35.3125 L 8.125 0.140625 L 4.90625 0.140625 L 44.84375 -89.703125 L 45.6875 -89.703125 L 84.09375 0.140625 Z M 24.953125 -37.5625 L 57.1875 -37.5625 L 41.34375 -74.5625 Z M 24.953125 -37.5625 "/></g></g></g><g fill="#80011f" fill-opacity="1"><g transform="translate(185.421379, 342.635499)"><g><path d="M 80.59375 -88.015625 L 83.8125 -88.015625 L 43.875 1.828125 L 43.171875 1.828125 L 4.625 -88.015625 L 15.421875 -88.015625 L 47.375 -13.3125 Z M 80.59375 -88.015625 "/></g></g></g><g fill="#80011f" fill-opacity="1"><g transform="translate(274.000179, 342.635499)"><g><path d="M 8.125 0.140625 L 8.125 -88.015625 L 18.21875 -88.015625 L 18.21875 0.140625 Z M 8.125 0.140625 "/></g></g></g><g fill="#80011f" fill-opacity="1"><g transform="translate(300.910193, 342.635499)"><g><path d="M 78.34375 -88.015625 L 78.34375 2.515625 L 77.921875 2.515625 L 9.109375 -73.71875 L 9.109375 0.140625 L 6.734375 0.140625 L 6.734375 -89.703125 L 7.140625 -89.703125 L 75.96875 -13.453125 L 75.96875 -88.015625 Z M 78.34375 -88.015625 "/></g></g></g><g fill="#80011f" fill-opacity="1"><g transform="translate(386.545698, 342.635499)"><g><path d="M 73.296875 0.140625 L 58.171875 -35.3125 L 23.828125 -35.3125 L 8.125 0.140625 L 4.90625 0.140625 L 44.84375 -89.703125 L 45.6875 -89.703125 L 84.09375 0.140625 Z M 24.953125 -37.5625 L 57.1875 -37.5625 L 41.34375 -74.5625 Z M 24.953125 -37.5625 "/></g></g></g></svg>